<svg xmlns="http://www.w3.org/2000/svg" width="30" height="30" viewBox="0 0 30 30"><path d="M16.475 13.583v-.066c-.014.022-.032.044-.044.066z"/><path d="M30 30H0V0h30v30zM11.794 11.533c.058 1.234 0 13.27 0 13.391h4.452v-7.479a2.954 2.954 0 01.148-1.085 2.481 2.481 0 012.284-1.628c1.863 0 2.254 1.646 2.254 3.028v7.164h4.452v-7.68a6.511 6.511 0 00-1.464-4.556 4.82 4.82 0 00-3.661-1.471 4.4 4.4 0 00-4.013 2.212v-1.9zm-6.914 0v13.39h4.451v-13.39zm2.255-6.456A2.32 2.32 0 107.076 9.7h.03a2.321 2.321 0 10.03-4.628z" fill="#000000"/></svg>
