<svg xmlns="http://www.w3.org/2000/svg" width="30" height="30" viewBox="0 0 30 30"><path d="M30 30H0V0h30v30zM4.616 21.524a12.081 12.081 0 006.532 1.914 12.275 12.275 0 005.2-1.1 11.469 11.469 0 003.8-2.848 12.542 12.542 0 003.123-8.173c0-.193 0-.373-.012-.552a8.611 8.611 0 002.126-2.2 8.526 8.526 0 01-2.447.67 4.261 4.261 0 001.872-2.363 8.512 8.512 0 01-2.71 1.035 4.263 4.263 0 00-7.371 2.915 4.328 4.328 0 00.11.971A12.138 12.138 0 016.062 7.34a4.266 4.266 0 001.318 5.689 4.256 4.256 0 01-1.93-.529v.054a4.271 4.271 0 003.418 4.178 4.27 4.27 0 01-1.924.073 4.259 4.259 0 003.981 2.959 8.5 8.5 0 01-5.292 1.824 8.67 8.67 0 01-1.017-.064z" fill="#000000"/></svg>
