<svg xmlns="http://www.w3.org/2000/svg" width="30" height="30" viewBox="0 0 30 30"><path d="M30 30H0V0h30v30zm-15-7.762h.531a65.38 65.38 0 007.247-.287 2.629 2.629 0 002.246-2.041 22.12 22.12 0 00.361-4.91v-.047a21.88 21.88 0 00-.359-4.862A2.626 2.626 0 0022.78 8.05a65.371 65.371 0 00-7.246-.287h-1.062a65.385 65.385 0 00-7.247.287 2.625 2.625 0 00-2.244 2.041A22.35 22.35 0 004.615 15a22.094 22.094 0 00.363 4.91 2.624 2.624 0 002.245 2.041 65.362 65.362 0 007.245.287z" fill="#000000"/><path d="M12.581 18.387l6.774-3.374-6.774-3.4z" fill="#000000"/></svg>
